<?xml version="1.0" encoding="iso-8859-1"?>
<!-- Generator: Adobe Illustrator 16.0.0, SVG Export Plug-In . SVG Version: 6.00 Build 0)  -->
<!DOCTYPE svg PUBLIC "-//W3C//DTD SVG 1.1//EN" "http://www.w3.org/Graphics/SVG/1.1/DTD/svg11.dtd">
<svg version="1.1" id="Capa_1" xmlns="http://www.w3.org/2000/svg" xmlns:xlink="http://www.w3.org/1999/xlink" x="0px" y="0px"
	 width="490.694px" height="490.694px" viewBox="0 0 490.694 490.694" style="enable-background:new 0 0 490.694 490.694;"
	 xml:space="preserve">
<g>
	<path d="M490.694,271.546c0,60.687-49.379,110.064-110.064,110.064h-28.561v-23.235h28.561c47.877,0,86.829-38.945,86.829-86.823
		c0-47.877-38.952-86.82-86.829-86.82c-4.504,0-9.257,0.432-14.523,1.321l-7.43,1.253l-4.173-6.271
		c-16.172-24.296-43.207-38.798-72.312-38.798c-2.908,0-5.876,0.153-8.79,0.443l-9.794,0.993l-2.583-9.505
		c-10.243-37.702-44.656-64.043-83.693-64.043c-47.871,0-86.82,38.949-86.82,86.82c0,6.011,0.641,12.105,1.918,18.11l2.211,10.392
		l-10.152,3.129c-36.641,11.275-61.25,44.626-61.25,82.981c0,45.082,34.534,82.213,78.524,86.41
		c-2.746,1.395-5.228,3.351-7.128,5.887c-2.657,3.559-4.117,7.968-4.117,12.401c0,1.199,0.121,2.399,0.328,3.569
		C39.301,370.7,0,325.683,0,271.558c0-45.188,26.953-84.887,68.039-101.745c-0.508-4.286-0.763-8.588-0.763-12.862
		c0-60.683,49.37-110.056,110.056-110.056c46.308,0,87.477,29.211,103.229,72.123c35.11-0.44,67.844,15.552,88.98,43.113
		c3.83-0.417,7.495-0.629,11.101-0.629C441.315,161.491,490.694,210.861,490.694,271.546z M218.657,365.185l-37.102,14.652V254.168
		c0-1.637-1.324-2.973-2.97-2.973h-29.731c-1.64,0-2.967,1.336-2.967,2.973v125.669l-37.09-14.652
		c-1.248-0.491-2.663-0.089-3.467,0.976c-0.396,0.531-0.6,1.158-0.6,1.791c0,0.632,0.204,1.276,0.618,1.814l56.022,72.867
		c0.562,0.733,1.433,1.165,2.361,1.165c0.925,0,1.791-0.432,2.353-1.165l56.031-72.867c0.816-1.064,0.816-2.542,0.018-3.605
		C221.326,365.096,219.898,364.694,218.657,365.185z M371.326,328.833c0.39-0.532,0.597-1.164,0.597-1.791
		c0-0.638-0.207-1.276-0.62-1.809L315.28,252.36c-0.562-0.732-1.431-1.164-2.358-1.164s-1.785,0.432-2.358,1.164l-56.022,72.874
		c-0.821,1.059-0.821,2.536-0.023,3.6c0.804,1.064,2.229,1.466,3.47,0.976l37.102-14.652v125.668c0,1.644,1.324,2.974,2.974,2.974
		h29.731c1.637,0,2.973-1.33,2.973-2.974V315.157l37.096,14.652C369.092,330.299,370.522,329.898,371.326,328.833z"/>
</g>
<g>
</g>
<g>
</g>
<g>
</g>
<g>
</g>
<g>
</g>
<g>
</g>
<g>
</g>
<g>
</g>
<g>
</g>
<g>
</g>
<g>
</g>
<g>
</g>
<g>
</g>
<g>
</g>
<g>
</g>
</svg>
